<mxfile host="Electron" agent="Mozilla/5.0 (X11; Linux x86_64) AppleWebKit/537.36 (KHTML, like Gecko) draw.io/24.7.17 Chrome/128.0.6613.36 Electron/32.0.1 Safari/537.36" version="24.7.17">
  <diagram name="Page-1" id="vyaJz_Ta0c3e6he77Vdt">
    <mxGraphModel dx="1114" dy="925" grid="1" gridSize="10" guides="1" tooltips="1" connect="1" arrows="1" fold="1" page="1" pageScale="1" pageWidth="850" pageHeight="1100" math="0" shadow="0">
      <root>
        <mxCell id="0" />
        <mxCell id="1" parent="0" />
        <mxCell id="lNBeRsjH6Kvnx_Pee5Yx-1" value="inst.Re1" style="html=1;shape=mxgraph.electrical.electro-mechanical.switchDisconnector;aspect=fixed;elSwitchState=off;verticalAlign=bottom;labelPosition=center;verticalLabelPosition=top;align=center;" vertex="1" parent="1">
          <mxGeometry x="350" y="340" width="75" height="20" as="geometry" />
        </mxCell>
        <mxCell id="lNBeRsjH6Kvnx_Pee5Yx-6" style="edgeStyle=orthogonalEdgeStyle;rounded=0;orthogonalLoop=1;jettySize=auto;html=1;exitX=1;exitY=0.5;exitDx=0;exitDy=0;exitPerimeter=0;entryX=0;entryY=0.84;entryDx=0;entryDy=0;" edge="1" parent="1" source="lNBeRsjH6Kvnx_Pee5Yx-2" target="lNBeRsjH6Kvnx_Pee5Yx-1">
          <mxGeometry relative="1" as="geometry" />
        </mxCell>
        <mxCell id="lNBeRsjH6Kvnx_Pee5Yx-2" value="SMU_ch0" style="pointerEvents=1;verticalLabelPosition=bottom;shadow=0;dashed=0;align=center;html=1;verticalAlign=top;shape=mxgraph.electrical.signal_sources.source;aspect=fixed;points=[[0.5,0,0],[1,0.5,0],[0.5,1,0],[0,0.5,0]];elSignalType=none;elSourceType=dependent;" vertex="1" parent="1">
          <mxGeometry x="170" y="330" width="60" height="60" as="geometry" />
        </mxCell>
        <mxCell id="lNBeRsjH6Kvnx_Pee5Yx-5" style="edgeStyle=orthogonalEdgeStyle;rounded=0;orthogonalLoop=1;jettySize=auto;html=1;exitX=1;exitY=0.5;exitDx=0;exitDy=0;exitPerimeter=0;entryX=0;entryY=0.84;entryDx=0;entryDy=0;" edge="1" parent="1" source="lNBeRsjH6Kvnx_Pee5Yx-3" target="lNBeRsjH6Kvnx_Pee5Yx-4">
          <mxGeometry relative="1" as="geometry" />
        </mxCell>
        <mxCell id="lNBeRsjH6Kvnx_Pee5Yx-3" value="Scope_Ch0" style="perimeter=ellipsePerimeter;verticalLabelPosition=bottom;shadow=0;dashed=0;align=center;html=1;verticalAlign=top;shape=mxgraph.electrical.instruments.oscilloscope;" vertex="1" parent="1">
          <mxGeometry x="155" y="450" width="90" height="90" as="geometry" />
        </mxCell>
        <mxCell id="lNBeRsjH6Kvnx_Pee5Yx-4" value="inst.Re2" style="html=1;shape=mxgraph.electrical.electro-mechanical.switchDisconnector;aspect=fixed;elSwitchState=off;labelPosition=center;verticalLabelPosition=top;align=center;verticalAlign=bottom;" vertex="1" parent="1">
          <mxGeometry x="350" y="480" width="75" height="20" as="geometry" />
        </mxCell>
      </root>
    </mxGraphModel>
  </diagram>
</mxfile>
